0
SECTION
2
HEADER
9
$INSUNITS
70
4
9
$ACADVER
1
AC1014
9
$HANDSEED
5
FFFF
0
ENDSEC
0
SECTION
2
TABLES
0
TABLE
2
VPORT
5
8
100
AcDbSymbolTable
0
ENDTAB
0
TABLE
2
LTYPE
5
5
100
AcDbSymbolTable
0
LTYPE
5
14
100
AcDbSymbolTableRecord
100
AcDbLinetypeTableRecord
2
BYBLOCK
70
0
0
LTYPE
5
15
100
AcDbSymbolTableRecord
100
AcDbLinetypeTableRecord
2
BYLAYER
70
0
0
LTYPE
5
16
100
AcDbSymbolTableRecord
100
AcDbLinetypeTableRecord
2
DASHED
70
0
3
Dashed __ __ __ __ __ __ __ __ __ __ __ __ __ _
72
65
73
2
40
0.75
49
0.5
74
0
49
-0.25
74
0
0
ENDTAB
0
TABLE
2
LAYER
5
2
100
AcDbSymbolTable
70
2
0
LAYER
5
50
100
AcDbSymbolTableRecord
100
AcDbLayerTableRecord
2
0
70
0
62
7
6
CONTINUOUS
0
ENDTAB
0
TABLE
2
STYLE
5
3
100
AcDbSymbolTable
70
1
0
STYLE
5
11
100
AcDbSymbolTableRecord
100
AcDbTextStyleTableRecord
2
STANDARD
70
0
0
ENDTAB
0
TABLE
2
VIEW
5
6
100
AcDbSymbolTable
70
0
0
ENDTAB
0
TABLE
2
UCS
5
7
100
AcDbSymbolTable
70
0
0
ENDTAB
0
TABLE
2
APPID
5
9
100
AcDbSymbolTable
70
2
0
APPID
5
12
100
AcDbSymbolTableRecord
100
AcDbRegAppTableRecord
2
ACAD
70
0
0
ENDTAB
0
TABLE
2
DIMSTYLE
5
A
100
AcDbSymbolTable
70
1
0
ENDTAB
0
TABLE
2
BLOCK_RECORD
5
1
100
AcDbSymbolTable
70
1
0
BLOCK_RECORD
5
1F
100
AcDbSymbolTableRecord
100
AcDbBlockTableRecord
2
*MODEL_SPACE
0
BLOCK_RECORD
5
1B
100
AcDbSymbolTableRecord
100
AcDbBlockTableRecord
2
*PAPER_SPACE
0
ENDTAB
0
ENDSEC
0
SECTION
2
BLOCKS
0
BLOCK
5
20
100
AcDbEntity
100
AcDbBlockBegin
2
*MODEL_SPACE
0
ENDBLK
5
21
100
AcDbEntity
100
AcDbBlockEnd
0
BLOCK
5
1C
100
AcDbEntity
100
AcDbBlockBegin
2
*PAPER_SPACE
0
ENDBLK
5
1D
100
AcDbEntity
100
AcDbBlockEnd
0
ENDSEC
0
SECTION
2
ENTITIES
0
POINT
5
100
100
AcDbEntity
8
0
100
AcDbPoint
10
-59.999996274704671
20
-45.454545752568677
30
1.5063155469836367e-14
0
POINT
5
101
100
AcDbEntity
8
0
100
AcDbPoint
10
-59.999996274704671
20
-42.90909120711413
30
1.5063155469836367e-14
0
POINT
5
102
100
AcDbEntity
8
0
100
AcDbPoint
10
-59.999996274704671
20
-40.363636661659584
30
1.5063155469836367e-14
0
POINT
5
103
100
AcDbEntity
8
0
100
AcDbPoint
10
-59.999996274704671
20
-37.818182116205037
30
1.5063155469836367e-14
0
POINT
5
104
100
AcDbEntity
8
0
100
AcDbPoint
10
-59.999996274704671
20
-35.27272757075049
30
1.5063155469836367e-14
0
POINT
5
105
100
AcDbEntity
8
0
100
AcDbPoint
10
-59.999996274704671
20
-32.727273025295951
30
1.5063155469836367e-14
0
POINT
5
106
100
AcDbEntity
8
0
100
AcDbPoint
10
-59.999996274704671
20
-30.1818184798414
30
1.5063155469836367e-14
0
POINT
5
107
100
AcDbEntity
8
0
100
AcDbPoint
10
-59.999996274704671
20
-27.636363934386857
30
1.5063155469836367e-14
0
POINT
5
108
100
AcDbEntity
8
0
100
AcDbPoint
10
-59.999996274704671
20
-25.09090938893231
30
1.5063155469836367e-14
0
POINT
5
109
100
AcDbEntity
8
0
100
AcDbPoint
10
-59.999996274704671
20
-22.545454843477764
30
1.5063155469836367e-14
0
POINT
5
110
100
AcDbEntity
8
0
100
AcDbPoint
10
-59.999996274704671
20
-20.00000029802322
30
1.5063155469836367e-14
0
LWPOLYLINE
5
111
100
AcDbEntity
8
0
100
AcDbPolyline
90
18
70
1
43
0.0
10
55.000004842882433
20
47
10
60.000004842882433
20
42.104892203580427
10
63.000006488261505
20
33.041953752999177
10
63.000002421441224
20
5.7499803257911264
10
62.000004842882426
20
-10.499999999999998
10
56.000004842882447
20
-28
10
41.000004842882433
20
-43
10
10.000004842882436
20
-53
10
-64.999995157117581
20
-53
10
-64.999995157117581
20
-14.999999806284903
10
-21.999995708460528
20
-14.999999806284903
10
-19.999995157117564
20
-12.999999999999998
10
4.8428824372948043e-06
20
7.0000000000000018
10
0
20
35.000000521540642
10
38.000000566244125
20
35.000000521540642
10
38.000000566244125
20
57
10
45.000004842882433
20
57
10
45.000004842882433
20
47
0
CIRCLE
5
112
100
AcDbEntity
8
0
100
AcDbCircle
10
59.999996274704671
20
-48.000000298023224
30
-7.7152751311693485e-15
40
1.0000000149011612
210
-1.2246467991473532e-16
220
0
230
-1
0
CIRCLE
5
113
100
AcDbEntity
8
0
100
AcDbCircle
10
59.999996274704671
20
-45.454545752568677
30
-7.7152751311693485e-15
40
1.0000000000000009
210
-1.2246467991473532e-16
220
0
230
-1
0
CIRCLE
5
114
100
AcDbEntity
8
0
100
AcDbCircle
10
59.999996274704671
20
-42.90909120711413
30
-7.7152751311693485e-15
40
1.0000000000000009
210
-1.2246467991473532e-16
220
0
230
-1
0
CIRCLE
5
115
100
AcDbEntity
8
0
100
AcDbCircle
10
59.999996274704671
20
-40.363636661659584
30
-7.7152751311693485e-15
40
0.99999999999999645
210
-1.2246467991473532e-16
220
0
230
-1
0
CIRCLE
5
116
100
AcDbEntity
8
0
100
AcDbCircle
10
59.999996274704671
20
-37.818182116205037
30
-7.7152751311693485e-15
40
0.99999999999999645
210
-1.2246467991473532e-16
220
0
230
-1
0
CIRCLE
5
117
100
AcDbEntity
8
0
100
AcDbCircle
10
59.999996274704671
20
-35.27272757075049
30
-7.7152751311693485e-15
40
0.99999999999999645
210
-1.2246467991473532e-16
220
0
230
-1
0
CIRCLE
5
118
100
AcDbEntity
8
0
100
AcDbCircle
10
59.999996274704671
20
-32.727273025295951
30
-7.7152751311693485e-15
40
0.99999999999999645
210
-1.2246467991473532e-16
220
0
230
-1
0
CIRCLE
5
119
100
AcDbEntity
8
0
100
AcDbCircle
10
59.999996274704671
20
-30.1818184798414
30
-7.7152751311693485e-15
40
0.99999999999999645
210
-1.2246467991473532e-16
220
0
230
-1
0
CIRCLE
5
120
100
AcDbEntity
8
0
100
AcDbCircle
10
59.999996274704671
20
-27.636363934386857
30
-7.7152751311693485e-15
40
0.99999999999999645
210
-1.2246467991473532e-16
220
0
230
-1
0
CIRCLE
5
121
100
AcDbEntity
8
0
100
AcDbCircle
10
59.999996274704671
20
-25.09090938893231
30
-7.7152751311693485e-15
40
0.99999999999999645
210
-1.2246467991473532e-16
220
0
230
-1
0
CIRCLE
5
122
100
AcDbEntity
8
0
100
AcDbCircle
10
59.999996274704671
20
-22.545454843477764
30
-7.7152751311693485e-15
40
0.99999999999999645
210
-1.2246467991473532e-16
220
0
230
-1
0
CIRCLE
5
123
100
AcDbEntity
8
0
100
AcDbCircle
10
59.999996274704671
20
-20.00000029802322
30
-7.7152751311693485e-15
40
0.99999999999999645
210
-1.2246467991473532e-16
220
0
230
-1
0
LINE
5
124
100
AcDbEntity
8
0
100
AcDbLine
10
-59.49999626725409
20
-36.00000011920929
30
1.5001923128966569e-14
11
-59.49999626725409
21
-35.000000104308128
31
1.5001923128966569e-14
0
LINE
5
125
100
AcDbEntity
8
0
100
AcDbLine
10
-59.49999626725409
20
-47.500000290572643
30
1.5001923128966569e-14
11
-59.49999626725409
21
-48.500000305473804
31
1.5001923128966569e-14
0
LINE
5
126
100
AcDbEntity
8
0
100
AcDbLine
10
-59.49999626725409
20
-45.00000025331974
30
1.5001923128966569e-14
11
-59.49999626725409
21
-46.000000268220901
31
1.5001923128966569e-14
0
LINE
5
127
100
AcDbEntity
8
0
100
AcDbLine
10
-59.49999626725409
20
-42.500000216066837
30
1.5001923128966569e-14
11
-59.49999626725409
21
-43.500000230967999
31
1.5001923128966569e-14
0
LINE
5
128
100
AcDbEntity
8
0
100
AcDbLine
10
-59.49999626725409
20
-40.000000178813934
30
1.5001923128966569e-14
11
-59.49999626725409
21
-41.000000193715096
31
1.5001923128966569e-14
0
LINE
5
129
100
AcDbEntity
8
0
100
AcDbLine
10
-59.49999626725409
20
-37.500000141561031
30
1.5001923128966569e-14
11
-59.49999626725409
21
-38.500000156462193
31
1.5001923128966569e-14
0
LINE
5
130
100
AcDbEntity
8
0
100
AcDbLine
10
-59.49999626725409
20
-26.999999985098839
30
1.5001923128966569e-14
11
-59.49999626725409
21
-28
31
1.5001923128966569e-14
0
LINE
5
131
100
AcDbEntity
8
0
100
AcDbLine
10
-59.49999626725409
20
-24.499999947845936
30
1.5001923128966569e-14
11
-59.49999626725409
21
-25.499999962747097
31
1.5001923128966569e-14
0
LINE
5
132
100
AcDbEntity
8
0
100
AcDbLine
10
-59.49999626725409
20
-21.999999910593033
30
1.5001923128966569e-14
11
-59.49999626725409
21
-22.999999925494194
31
1.5001923128966569e-14
0
LINE
5
133
100
AcDbEntity
8
0
100
AcDbLine
10
-59.49999626725409
20
-19.49999987334013
30
1.5001923128966569e-14
11
-59.49999626725409
21
-20.499999888241291
31
1.5001923128966569e-14
0
LINE
5
134
100
AcDbEntity
8
0
100
AcDbLine
10
-59.49999626725409
20
-29.500000022351742
30
1.5001923128966569e-14
11
-59.49999626725409
21
-30.500000037252903
31
1.5001923128966569e-14
0
LINE
5
135
100
AcDbEntity
8
0
100
AcDbLine
10
-59.49999626725409
20
-32.000000059604645
30
1.5001923128966569e-14
11
-59.49999626725409
21
-33.000000074505806
31
1.5001923128966569e-14
0
LINE
5
136
100
AcDbEntity
8
0
100
AcDbLine
10
51.000005379324236
20
47.00000111758709
30
1.4695757967406266e-15
11
52.000005394225397
21
47.00000111758709
31
1.347111115001026e-15
0
LINE
5
137
100
AcDbEntity
8
0
100
AcDbLine
10
45.000005289917269
20
53.000001206994042
30
2.2043638871782334e-15
11
45.000005289917269
21
54.000001221895239
31
2.2043638871782334e-15
0
LINE
5
138
100
AcDbEntity
8
0
100
AcDbLine
10
51.000005379324236
20
47.00000111758709
30
1.4695757967406266e-15
11
45.000005289917269
21
53.000001206994042
31
2.2043638871782334e-15
0
LWPOLYLINE
5
139
100
AcDbEntity
8
0
100
AcDbPolyline
90
4
70
1
43
0.0
10
-59.49999626725409
20
-47.500000290572643
10
-46.500000707805157
20
-47.500000290572643
10
-46.500000707805157
20
-48.50000075250864
10
-59.49999626725409
20
-48.50000075250864
0
LWPOLYLINE
5
140
100
AcDbEntity
8
0
100
AcDbPolyline
90
4
70
1
43
0.0
10
-59.49999626725409
20
-45.00000025331974
10
-46.500000707805157
20
-45.00000025331974
10
-46.500000707805157
20
-46.000000268220901
10
-59.49999626725409
20
-46.000000268220901
0
LWPOLYLINE
5
141
100
AcDbEntity
8
0
100
AcDbPolyline
90
12
70
1
43
0.0
10
-59.49999626725409
20
-42.500000216066837
10
-15.000000707805157
20
-42.500000216066837
10
-15.000000707805155
20
-43.469281120006727
10
18.000000074505806
20
-43.469281120006727
10
18.000000074505806
20
-42.500000216066837
10
18.000000074505806
20
-31.000000417232513
10
17.00000025331974
20
-31.000000417232513
10
17.00000025331974
20
-42.500000216066837
10
18.000000074505806
20
-42.500000216066837
10
-15.000000707805157
20
-42.500000216066837
10
-15.000000707805157
20
-43.500000678002834
10
-59.49999626725409
20
-43.500000678002834
0
LWPOLYLINE
5
142
100
AcDbEntity
8
0
100
AcDbPolyline
90
4
70
1
43
0.0
10
-59.49999626725409
20
-40.000000178813934
10
-15.000000707805157
20
-40.000000178813934
10
-15.000000707805157
20
-41.000000640749931
10
-59.49999626725409
20
-41.000000640749931
0
LWPOLYLINE
5
143
100
AcDbEntity
8
0
100
AcDbPolyline
90
6
70
1
43
0.0
10
-59.49999626725409
20
-37.500000141561031
10
-13.000000707805157
20
-37.500000141561031
10
2.500000037252903
20
-20.500000305473804
10
2.500000037252903
20
-21.500000320374966
10
-13.000000707805157
20
-38.500000603497028
10
-59.49999626725409
20
-38.500000603497028
0
LINE
5
144
100
AcDbEntity
8
0
100
AcDbLine
10
-13.000000707805157
20
-37.500000141561031
30
1.5001923128966569e-14
11
-13.000000707805157
21
-38.500000603497028
31
1.5001923128966569e-14
0
LWPOLYLINE
5
145
100
AcDbEntity
8
0
100
AcDbPolyline
90
8
70
1
43
0.0
10
-59.49999626725409
20
-35.000000104308128
10
-14.000000707805158
20
-35.000000104308128
10
12.000000208616257
20
-6.0000000894069672
10
26.000000387430191
20
-6.0000000894069672
10
26.000000387430191
20
-7.0000001043081284
10
12.000000208616257
20
-7.0000001043081284
10
-14.000000707805157
20
-36.000000566244125
10
-59.49999626725409
20
-36.000000566244125
0
LINE
5
146
100
AcDbEntity
8
0
100
AcDbLine
10
-14.000000707805157
20
-35.000000104308128
30
1.5001923128966569e-14
11
-14.000000707805157
21
-36.000000566244125
31
1.5001923128966569e-14
0
LWPOLYLINE
5
147
100
AcDbEntity
8
0
100
AcDbPolyline
90
8
70
1
43
0.0
10
-59.49999626725409
20
-32.000000059604645
10
-15.000000707805157
20
-32.000000059604645
10
12.000000178813934
20
-3.0000000447034836
10
15.000000223517418
20
-3.0000000447034836
10
15.000000223517418
20
-4.0000000596046448
10
12.000000178813934
20
-4.0000000596046448
10
-15.000000707805157
20
-33.000000521540642
10
-59.49999626725409
20
-33.000000521540642
0
LINE
5
148
100
AcDbEntity
8
0
100
AcDbLine
10
-15.000000707805157
20
-32.000000059604645
30
1.5001923128966569e-14
11
-15.000000707805157
21
-33.000000521540642
31
1.5001923128966569e-14
0
LWPOLYLINE
5
149
100
AcDbEntity
8
0
100
AcDbPolyline
90
6
70
1
43
0.0
10
-59.49999626725409
20
-30.500000037252903
10
-16.000000707805157
20
-30.500000037252903
10
11.000000208616257
20
-2
10
10.000000193715092
20
-2.0000000000000018
10
-16.000000707805157
20
-29.500000469386578
10
-59.49999626725409
20
-29.500000469386578
0
LINE
5
150
100
AcDbEntity
8
0
100
AcDbLine
10
-16.000000707805157
20
-30.500000037252903
30
1.5001923128966569e-14
11
-16.000000707805157
21
-29.500000469386578
31
1.5001923128966569e-14
0
LWPOLYLINE
5
151
100
AcDbEntity
8
0
100
AcDbPolyline
90
6
70
1
43
0.0
10
-59.49999626725409
20
-28
10
-18.000000707805167
20
-28.000000000000014
10
9.0000001788139343
20
0
10
8.0000001639127731
20
0
10
-18.000000707805167
20
-27.000000432133675
10
-59.49999626725409
20
-27.000000432133675
0
LINE
5
152
100
AcDbEntity
8
0
100
AcDbLine
10
-18.000000707805167
20
-28.000000000000014
30
1.5001923128966569e-14
11
-18.000000707805167
21
-27.000000432133675
31
1.5001923128966569e-14
0
LWPOLYLINE
5
153
100
AcDbEntity
8
0
100
AcDbPolyline
90
6
70
1
43
0.0
10
-59.49999626725409
20
-25.499999962747097
10
-20.000000707805164
20
-25.499999962747097
10
7.0000001490116119
20
2
10
6.0000001341104525
20
2.0000000000000018
10
-20.000000707805164
20
-24.500000394880786
10
-59.49999626725409
20
-24.500000394880772
0
LINE
5
154
100
AcDbEntity
8
0
100
AcDbLine
10
-20.000000707805164
20
-25.499999962747097
30
1.5001923128966569e-14
11
-20.000000707805164
21
-24.500000394880786
31
1.5001923128966569e-14
0
LWPOLYLINE
5
155
100
AcDbEntity
8
0
100
AcDbPolyline
90
6
70
1
43
0.0
10
-59.49999626725409
20
-22.999999925494194
10
-21.500000707805171
20
-22.999999925494194
10
5.0000001192092896
20
4
10
4.0000001043081301
20
3.9999999999999991
10
-21.500000707805171
20
-22.000000357627872
10
-59.49999626725409
20
-22.000000357627869
0
LINE
5
156
100
AcDbEntity
8
0
100
AcDbLine
10
-21.500000707805171
20
-22.999999925494194
30
1.5001923128966569e-14
11
-21.500000707805171
21
-22.000000357627872
31
1.5001923128966569e-14
0
LWPOLYLINE
5
157
100
AcDbEntity
8
0
100
AcDbPolyline
90
8
70
1
43
0.0
10
-59.49999626725409
20
-20.499999888241291
10
-23.000000707805157
20
-20.499999888241291
10
3.0000000894069667
20
5
10
3.0000000894069667
20
33.000000804662704
10
2.0000000745058055
20
33.000000804662704
10
2.0000000745058077
20
5
10
-23.000000707805157
20
-19.500000320374966
10
-59.49999626725409
20
-19.500000320374966
0
LINE
5
158
100
AcDbEntity
8
0
100
AcDbLine
10
-23.000000707805157
20
-20.499999888241291
30
1.5001923128966569e-14
11
-23.000000707805157
21
-19.500000320374966
31
1.5001923128966569e-14
0
LWPOLYLINE
5
159
100
AcDbEntity
8
0
100
AcDbPolyline
90
4
70
1
43
0.0
10
45.000005289917269
20
53.000001206994042
10
40.000000491738319
20
53.000001206994042
10
40.000000491738319
20
54.000000774860382
10
45.000005289917269
20
54.000000774860382
0
LWPOLYLINE
5
160
100
AcDbEntity
8
0
100
AcDbPolyline
90
4
70
1
43
0.0
10
51.000005379324236
20
47.00000111758709
10
52.000000759959221
20
47.00000111758709
10
52.000000759959221
20
22.000000521540642
10
51.000005379324236
20
22.000000521540642
0
LWPOLYLINE
5
161
100
AcDbEntity
8
0
100
AcDbPolyline
90
4
70
1
43
0.0
10
6.0000000000000009
20
-20.999999999999996
10
16
20
-20.999999999999996
10
16
20
-30.999999999999996
10
6.0000000000000009
20
-30.999999999999996
0
LWPOLYLINE
5
162
100
AcDbEntity
8
0
100
AcDbPolyline
90
4
70
1
43
0.0
10
31
20
-12.999999999999998
10
26
20
-12.999999999999998
10
26
20
-7.9999999999999982
10
31
20
-7.9999999999999982
0
LWPOLYLINE
5
163
100
AcDbEntity
8
0
100
AcDbPolyline
90
4
70
1
43
0.0
10
21
20
-2.9999999999999982
10
16
20
-2.9999999999999982
10
16
20
2.0000000000000018
10
21
20
2.0000000000000018
0
LWPOLYLINE
5
164
100
AcDbEntity
8
0
100
AcDbPolyline
90
4
70
1
43
0.0
10
26
20
7.0000000000000018
10
31
20
7.0000000000000018
10
31
20
12.000000000000002
10
26
20
12.000000000000002
0
LWPOLYLINE
5
165
100
AcDbEntity
8
0
100
AcDbPolyline
90
4
70
1
43
0.0
10
36
20
2.0000000000000018
10
41
20
2.0000000000000018
10
41
20
-2.9999999999999982
10
36
20
-2.9999999999999982
0
LWPOLYLINE
5
166
100
AcDbEntity
8
0
100
AcDbPolyline
90
4
70
1
43
0.0
10
16.999999999999996
20
23
10
22.000000372529026
20
23
10
22.000000372529026
20
20.500000409781933
10
16.999999999999996
20
20.500000409781933
0
LWPOLYLINE
5
167
100
AcDbEntity
8
0
100
AcDbPolyline
90
4
70
1
43
0.0
10
34.500000558793545
20
20.500000409781933
10
39.500000633299351
20
20.500000409781933
10
39.500000633299351
20
23.000000447034836
10
34.500000558793545
20
23.000000447034836
0
CIRCLE
5
168
100
AcDbEntity
8
0
100
AcDbCircle
10
17.00000025331974
20
-31.000000417232513
30
0
40
1.0000000149011612
210
0
220
0
230
1
0
CIRCLE
5
169
100
AcDbEntity
8
0
100
AcDbCircle
10
5.000000074505806
20
-21.000000268220901
30
0
40
0.99999992549423089
210
0
220
0
230
1
0
LINE
5
170
100
AcDbEntity
8
0
100
AcDbLine
10
31.00000037252903
20
-31.000000461935997
30
0
11
31.00000037252903
21
-32.000000476837158
31
0
0
CIRCLE
5
171
100
AcDbEntity
8
0
100
AcDbCircle
10
41.000000610947609
20
-4.0000000596046448
30
0
40
1.0000000596048333
210
0
220
0
230
1
0
CIRCLE
5
172
100
AcDbEntity
8
0
100
AcDbCircle
10
31.000000461935997
20
-14.000000208616257
30
0
40
1.0000002086163653
210
0
220
0
230
1
0
LWPOLYLINE
5
173
100
AcDbEntity
8
0
100
AcDbPolyline
90
4
70
1
43
0.0
10
31.000000461935997
20
-14.000000208616257
10
32.000000476837158
20
-14.000000208616257
10
32.000000476837158
20
-32.000000476837158
10
31.000000461935997
20
-32.000000476837158
0
LWPOLYLINE
5
174
100
AcDbEntity
8
0
100
AcDbPolyline
90
4
70
1
43
0.0
10
31.000000461935997
20
-32.000000476837158
10
18.000000268220901
20
-32.000000476837158
10
18.000000074505806
20
-31.000000461935997
10
31.000000461935997
20
-31.000000461935997
0
LWPOLYLINE
5
175
100
AcDbEntity
8
0
100
AcDbPolyline
90
4
70
1
43
0.0
10
41.000000610947609
20
-4.0000000596046448
10
42.00000062584877
20
-4.0000000596046448
10
42.00000062584877
20
-15.000000223517418
10
41.000000610947609
20
-15.000000223517418
0
LWPOLYLINE
5
176
100
AcDbEntity
8
0
100
AcDbPolyline
90
4
70
1
43
0.0
10
41.000000610947609
20
-14.000000208616257
10
32.000000476837158
20
-14.000000208616257
10
32.000000476837158
20
-15.000000223517418
10
41.000000610947609
20
-15.000000223517418
0
CIRCLE
5
177
100
AcDbEntity
8
0
100
AcDbCircle
10
26.000000387430191
20
-7.0000001043081284
30
0
40
1.0000000149011612
210
0
220
0
230
1
0
ARC
5
178
100
AcDbEntity
8
0
100
AcDbCircle
10
31.000000461935997
20
-14.000000208616257
30
0
40
2.8284271668930394
210
0
220
0
230
1
100
AcDbArc
50
290.7048110546354
51
339.2951889453646
0
ARC
5
179
100
AcDbEntity
8
0
100
AcDbCircle
10
17.00000025331974
20
-34.000000461935997
30
1.5001923128966569e-14
40
2.8284271668930385
210
0
220
-0
230
1
100
AcDbArc
50
69.295193140413829
51
70.528779365510758
0
LWPOLYLINE
5
180
100
AcDbEntity
8
0
100
AcDbPolyline
90
4
70
1
43
0.0
10
33.000000491738319
20
-14.000000208616257
10
32.000000476837158
20
-14.000000208616257
10
32.000000476837158
20
7.0000001043081284
10
33.000000491738319
20
7.0000001043081284
0
CIRCLE
5
181
100
AcDbEntity
8
0
100
AcDbCircle
10
32.000000476837158
20
7.0000001043081284
30
0
40
1.0000000149011612
210
0
220
0
230
1
0
CIRCLE
5
182
100
AcDbEntity
8
0
100
AcDbCircle
10
22.000000327825546
20
2.0000000298023224
30
0
40
1.0000003278255458
210
0
220
0
230
1
0
LWPOLYLINE
5
183
100
AcDbEntity
8
0
100
AcDbPolyline
90
4
70
1
43
0.0
10
22.000000327825546
20
2.0000000298023224
10
32.000000476837158
20
2.0000000298023224
10
32.000000476837158
20
1.0000000149011612
10
22.000000327825546
20
1.0000000149011612
0
ARC
5
184
100
AcDbEntity
8
0
100
AcDbCircle
10
33.000000491738319
20
2.0000000298023224
30
0
40
2.8284271668930394
210
0
220
0
230
1
100
AcDbArc
50
200.7048110546354
51
249.2951889453646
0
CIRCLE
5
185
100
AcDbEntity
8
0
100
AcDbCircle
10
25.00000037252903
20
12.000000178813934
30
0
40
0.99999962747098703
210
0
220
0
230
1
0
CIRCLE
5
186
100
AcDbEntity
8
0
100
AcDbCircle
10
23.000000342726707
20
21.750000327825546
30
0
40
1.0000000149011612
210
0
220
0
230
1
0
CIRCLE
5
187
100
AcDbEntity
8
0
100
AcDbCircle
10
16.000000238418579
20
21.750000327825546
30
0
40
0.99999976158141823
210
0
220
0
230
1
0
CIRCLE
5
188
100
AcDbEntity
8
0
100
AcDbCircle
10
33.49999925121665
20
21.749999508261681
30
0
40
1.0000012628737469
210
0
220
0
230
1
0
CIRCLE
5
189
100
AcDbEntity
8
0
100
AcDbCircle
10
40.500000603497028
20
21.750000327825546
30
0
40
0.99999997019768028
210
0
220
0
230
1
0
LWPOLYLINE
5
190
100
AcDbEntity
8
0
100
AcDbPolyline
90
4
70
1
43
0.0
10
40.500000603497028
20
22.000000327825546
10
52.000000774860382
20
22.000000327825546
10
52.000000774860382
20
21.000000312924385
10
40.500000603497028
20
21.000000312924385
0
LWPOLYLINE
5
191
100
AcDbEntity
8
0
100
AcDbPolyline
90
8
70
1
43
0.0
10
23.000000342726707
20
22.000000327825546
10
27.000000402331352
20
22.000000327825546
10
28.000000417232513
20
22.000000327825546
10
28.000000417232513
20
17.000000223517418
10
27.000000402331352
20
17.000000223517418
10
27.000000402331352
20
22.000000327825546
10
27.000000402331352
20
21.000000312924385
10
23.000000342726707
20
21.000000312924385
0
LWPOLYLINE
5
192
100
AcDbEntity
8
0
100
AcDbPolyline
90
8
70
1
43
0.0
10
28.000000417232513
20
18.000000238418579
10
52.000000774860382
20
18.000000238418579
10
51.000000759959221
20
18.000000238418579
10
51.000000759959221
20
21.000000312924385
10
52.000000774860382
20
21.000000312924385
10
52.000000774860382
20
18.000000238418579
10
52.000000774860382
20
17.000000223517418
10
28.000000417232513
20
17.000000223517418
0
LWPOLYLINE
5
193
100
AcDbEntity
8
0
100
AcDbPolyline
90
4
70
1
43
0.0
10
51.000000759959221
20
17.000000223517418
10
52.000000774860382
20
17.000000223517418
10
52.000000774860382
20
-15.000000223517418
10
51.000000759959221
20
-15.000000223517418
0
LWPOLYLINE
5
194
100
AcDbEntity
8
0
100
AcDbPolyline
90
4
70
1
43
0.0
10
42.00000062584877
20
-14.000000208616257
10
51.000000759959221
20
-14.000000208616257
10
51.000000759959221
20
-15.000000223517418
10
42.00000062584877
20
-15.000000223517418
0
LWPOLYLINE
5
195
100
AcDbEntity
8
0
100
AcDbPolyline
90
8
70
1
43
0.0
10
34.000000506639481
20
22.000000327825546
10
33.000000491738319
20
22.000000327825546
10
33.000000491738319
20
30.000000484287739
10
4.0000001043081284
20
30.000000484287739
10
4.0000001043081284
20
29.000000432133675
10
33.000000491738319
20
29.000000432133675
10
33.000000491738319
20
30.000000484287739
10
34.000000506639481
20
30.000000484287739
0
LINE
5
196
100
AcDbEntity
8
0
100
AcDbLine
10
2.0000000745058055
20
5
30
0
11
3.0000000894069667
21
5
31
0
0
CIRCLE
5
197
100
AcDbEntity
8
0
100
AcDbCircle
10
36.000000536441803
20
3.0000000447034836
30
0
40
1.0000000149011612
210
0
220
0
230
1
0
LWPOLYLINE
5
198
100
AcDbEntity
8
0
100
AcDbPolyline
90
4
70
1
43
0.0
10
36.000000536441803
20
3.0000000447034836
10
35.000000521540642
20
3.0000000447034836
10
35.000000521540642
20
15.000000223517418
10
36.000000536441803
20
15.000000223517418
0
LWPOLYLINE
5
199
100
AcDbEntity
8
0
100
AcDbPolyline
90
4
70
1
43
0.0
10
35.000000521540642
20
15.000000223517418
10
9.0000002086162567
20
15.000000223517418
10
9.0000002086162567
20
14.000000208616257
10
35.000000521540642
20
14.000000208616257
0
LWPOLYLINE
5
200
100
AcDbEntity
8
0
100
AcDbPolyline
90
4
70
1
43
0.0
10
25.00000037252903
20
12.000000178813934
10
11.000000208616257
20
12.000000178813934
10
11.000000208616257
20
11.000000163912773
10
25.00000037252903
20
11.000000163912773
0
LWPOLYLINE
5
201
100
AcDbEntity
8
0
100
AcDbPolyline
90
4
70
1
43
0.0
10
16.000000238418579
20
22.000000327825546
10
7.0000001490116119
20
22.000000327825546
10
7.0000001490116119
20
21.000000312924385
10
16.000000238418579
20
21.000000312924385
0
LINE
5
202
100
AcDbEntity
8
0
100
AcDbLine
10
4.0000001043081284
20
29.000000432133675
30
0
11
5.0000001192092896
21
29.000000432133675
31
0
0
LINE
5
203
100
AcDbEntity
8
0
100
AcDbLine
10
5.0000001192092896
20
29.000000432133675
30
0
11
5.0000001192092896
21
4
31
0
0
LINE
5
204
100
AcDbEntity
8
0
100
AcDbLine
10
4.0000001043081284
20
4
30
0
11
4.0000001043081284
21
29.000000432133675
31
0
0
LINE
5
205
100
AcDbEntity
8
0
100
AcDbLine
10
6.0000001341104507
20
22.000000327825546
30
0
11
7.0000001490116119
21
22.000000327825546
31
0
0
LINE
5
206
100
AcDbEntity
8
0
100
AcDbLine
10
7.0000001490116119
20
22.000000327825546
30
0
11
7.0000001490116119
21
2
31
0
0
LINE
5
207
100
AcDbEntity
8
0
100
AcDbLine
10
6.0000001341104507
20
2
30
0
11
6.0000001341104507
21
22.000000327825546
31
0
0
LINE
5
208
100
AcDbEntity
8
0
100
AcDbLine
10
8.0000001639127731
20
15.000000223517418
30
0
11
9.0000001788139343
21
15.000000223517418
31
0
0
LINE
5
209
100
AcDbEntity
8
0
100
AcDbLine
10
9.0000001788139343
20
15.000000223517418
30
0
11
9.0000001788139343
21
0
31
0
0
LINE
5
210
100
AcDbEntity
8
0
100
AcDbLine
10
8.0000001639127731
20
0
30
0
11
8.0000001639127731
21
15.000000223517418
31
0
0
CIRCLE
5
211
100
AcDbEntity
8
0
100
AcDbCircle
10
15.000000223517418
20
-3.0000000447034836
30
0
40
0.99999977648258409
210
0
220
0
230
1
0
LINE
5
212
100
AcDbEntity
8
0
100
AcDbLine
10
10.000000193715096
20
12.000000178813934
30
0
11
11.000000208616257
21
12.000000178813934
31
0
0
LINE
5
213
100
AcDbEntity
8
0
100
AcDbLine
10
11.000000208616257
20
12.000000178813934
30
0
11
11.000000208616257
21
-2
31
0
0
LINE
5
214
100
AcDbEntity
8
0
100
AcDbLine
10
10.000000193715096
20
-2
30
0
11
10.000000193715096
21
12.000000178813934
31
0
0
ARC
5
215
100
AcDbEntity
8
0
100
AcDbCircle
10
17.00000025331974
20
-31.000000417232513
30
0
40
2.8284271985031801
210
0
220
0
230
1
100
AcDbArc
50
290.70480661756415
51
339.29518821929844
0
LINE
5
216
100
AcDbEntity
8
0
100
AcDbLine
10
12.000000178813934
20
-4.0000000596046448
30
0
11
12.000000178813934
21
-3.0000000447034836
31
0
0
LINE
5
217
100
AcDbEntity
8
0
100
AcDbLine
10
12.000000208616257
20
-7.0000001043081284
30
0
11
12.000000208616257
21
-6.0000000894069672
31
0
0
LINE
5
218
100
AcDbEntity
8
0
100
AcDbLine
10
5.000000074505806
20
-20.500000305473804
30
0
11
2.500000037252903
21
-20.500000305473804
31
0
0
LINE
5
219
100
AcDbEntity
8
0
100
AcDbLine
10
2.500000037252903
20
-21.500000320374966
30
0
11
5.000000074505806
21
-21.500000320374966
31
0
0
LINE
5
220
100
AcDbEntity
8
0
100
AcDbLine
10
5.000000074505806
20
-21.500000320374966
30
0
11
5.000000074505806
21
-20.500000305473804
31
0
0
LWPOLYLINE
5
221
100
AcDbEntity
8
0
100
AcDbPolyline
90
8
70
1
43
0.0
10
3.0000000447034836
20
32.000000476837158
10
41.000000610947609
20
32.000000476837158
10
41.000000610947609
20
33.000000491738319
10
40.000000596046448
20
33.000000491738319
10
40.000000596046448
20
53.000000789761543
10
41.000000610947609
20
53.000000789761543
10
41.000000610947609
20
33.000000491738319
10
3.0000000447034836
20
33.000000491738319
0
ENDSEC
0
SECTION
2
OBJECTS
0
DICTIONARY
5
C
100
AcDbDictionary
3
ACAD_GROUP
350
D
3
ACAD_MLINESTYLE
350
17
0
DICTIONARY
5
D
100
AcDbDictionary
0
DICTIONARY
5
1A
330
C
100
AcDbDictionary
0
DICTIONARY
5
17
100
AcDbDictionary
0
ENDSEC
0
EOF
