0
SECTION
2
HEADER
9
$INSUNITS
70
4
9
$ACADVER
1
AC1014
9
$HANDSEED
5
FFFF
0
ENDSEC
0
SECTION
2
TABLES
0
TABLE
2
VPORT
5
8
100
AcDbSymbolTable
0
ENDTAB
0
TABLE
2
LTYPE
5
5
100
AcDbSymbolTable
0
LTYPE
5
14
100
AcDbSymbolTableRecord
100
AcDbLinetypeTableRecord
2
BYBLOCK
70
0
0
LTYPE
5
15
100
AcDbSymbolTableRecord
100
AcDbLinetypeTableRecord
2
BYLAYER
70
0
0
LTYPE
5
16
100
AcDbSymbolTableRecord
100
AcDbLinetypeTableRecord
2
DASHED
70
0
3
Dashed __ __ __ __ __ __ __ __ __ __ __ __ __ _
72
65
73
2
40
0.75
49
0.5
74
0
49
-0.25
74
0
0
ENDTAB
0
TABLE
2
LAYER
5
2
100
AcDbSymbolTable
70
2
0
LAYER
5
50
100
AcDbSymbolTableRecord
100
AcDbLayerTableRecord
2
0
70
0
62
7
6
CONTINUOUS
0
ENDTAB
0
TABLE
2
STYLE
5
3
100
AcDbSymbolTable
70
1
0
STYLE
5
11
100
AcDbSymbolTableRecord
100
AcDbTextStyleTableRecord
2
STANDARD
70
0
0
ENDTAB
0
TABLE
2
VIEW
5
6
100
AcDbSymbolTable
70
0
0
ENDTAB
0
TABLE
2
UCS
5
7
100
AcDbSymbolTable
70
0
0
ENDTAB
0
TABLE
2
APPID
5
9
100
AcDbSymbolTable
70
2
0
APPID
5
12
100
AcDbSymbolTableRecord
100
AcDbRegAppTableRecord
2
ACAD
70
0
0
ENDTAB
0
TABLE
2
DIMSTYLE
5
A
100
AcDbSymbolTable
70
1
0
ENDTAB
0
TABLE
2
BLOCK_RECORD
5
1
100
AcDbSymbolTable
70
1
0
BLOCK_RECORD
5
1F
100
AcDbSymbolTableRecord
100
AcDbBlockTableRecord
2
*MODEL_SPACE
0
BLOCK_RECORD
5
1B
100
AcDbSymbolTableRecord
100
AcDbBlockTableRecord
2
*PAPER_SPACE
0
ENDTAB
0
ENDSEC
0
SECTION
2
BLOCKS
0
BLOCK
5
20
100
AcDbEntity
100
AcDbBlockBegin
2
*MODEL_SPACE
0
ENDBLK
5
21
100
AcDbEntity
100
AcDbBlockEnd
0
BLOCK
5
1C
100
AcDbEntity
100
AcDbBlockBegin
2
*PAPER_SPACE
0
ENDBLK
5
1D
100
AcDbEntity
100
AcDbBlockEnd
0
ENDSEC
0
SECTION
2
ENTITIES
0
POINT
5
100
100
AcDbEntity
8
0
100
AcDbPoint
10
75.00000111758709
20
-17.454545752568677
30
0
0
POINT
5
101
100
AcDbEntity
8
0
100
AcDbPoint
10
75.00000111758709
20
-14.90909120711413
30
0
0
POINT
5
102
100
AcDbEntity
8
0
100
AcDbPoint
10
75.00000111758709
20
-12.363636661659587
30
0
0
POINT
5
103
100
AcDbEntity
8
0
100
AcDbPoint
10
75.00000111758709
20
-9.8181821162050404
30
0
0
POINT
5
104
100
AcDbEntity
8
0
100
AcDbPoint
10
75.00000111758709
20
-7.2727275707504946
30
0
0
POINT
5
105
100
AcDbEntity
8
0
100
AcDbPoint
10
75.00000111758709
20
-4.7272730252959505
30
0
0
POINT
5
106
100
AcDbEntity
8
0
100
AcDbPoint
10
75.00000111758709
20
-2.1818184798414042
30
0
0
POINT
5
107
100
AcDbEntity
8
0
100
AcDbPoint
10
75.00000111758709
20
0.3636360656131421
30
0
0
POINT
5
108
100
AcDbEntity
8
0
100
AcDbPoint
10
75.00000111758709
20
2.9090906110676862
30
0
0
POINT
5
109
100
AcDbEntity
8
0
100
AcDbPoint
10
75.00000111758709
20
5.4545451565222347
30
0
0
POINT
5
110
100
AcDbEntity
8
0
100
AcDbPoint
10
75.00000111758709
20
7.9999997019767788
30
0
0
LWPOLYLINE
5
111
100
AcDbEntity
8
0
100
AcDbPolyline
90
16
70
1
43
0.0
10
5
20
-25
10
80
20
-25
10
80
20
13.000000193715096
10
37.000000551342964
20
13.000000193715096
10
35
20
15
10
15
20
35
10
15
20
85
10
-30
20
85
10
-30
20
75
10
-40
20
75
10
-45
20
70.10489220358042
10
-48.000001645379058
20
61.04195375299917
10
-47.999997578558776
20
33.749980325791121
10
-46.999999999999993
20
17.5
10
-41
20
0
10
-25.999999999999996
20
-15
0
CIRCLE
5
112
100
AcDbEntity
8
0
100
AcDbCircle
10
75.00000111758709
20
-20.000000298023224
30
0
40
1.0000000149011612
210
0
220
0
230
1
0
CIRCLE
5
113
100
AcDbEntity
8
0
100
AcDbCircle
10
75.00000111758709
20
-17.454545752568677
30
0
40
1.0000000000000009
210
0
220
0
230
1
0
CIRCLE
5
114
100
AcDbEntity
8
0
100
AcDbCircle
10
75.00000111758709
20
-14.90909120711413
30
0
40
1.0000000000000009
210
0
220
0
230
1
0
CIRCLE
5
115
100
AcDbEntity
8
0
100
AcDbCircle
10
75.00000111758709
20
-12.363636661659587
30
0
40
0.99999999999999645
210
0
220
0
230
1
0
CIRCLE
5
116
100
AcDbEntity
8
0
100
AcDbCircle
10
75.00000111758709
20
-9.8181821162050404
30
0
40
0.99999999999999645
210
0
220
0
230
1
0
CIRCLE
5
117
100
AcDbEntity
8
0
100
AcDbCircle
10
75.00000111758709
20
-7.2727275707504946
30
0
40
0.99999999999999645
210
0
220
0
230
1
0
CIRCLE
5
118
100
AcDbEntity
8
0
100
AcDbCircle
10
75.00000111758709
20
-4.7272730252959505
30
0
40
0.99999999999999645
210
0
220
0
230
1
0
CIRCLE
5
119
100
AcDbEntity
8
0
100
AcDbCircle
10
75.00000111758709
20
-2.1818184798414042
30
0
40
0.99999999999999645
210
0
220
0
230
1
0
CIRCLE
5
120
100
AcDbEntity
8
0
100
AcDbCircle
10
75.00000111758709
20
0.3636360656131421
30
0
40
0.99999999999999645
210
0
220
0
230
1
0
CIRCLE
5
121
100
AcDbEntity
8
0
100
AcDbCircle
10
75.00000111758709
20
2.9090906110676862
30
0
40
0.99999999999999645
210
0
220
0
230
1
0
CIRCLE
5
122
100
AcDbEntity
8
0
100
AcDbCircle
10
75.00000111758709
20
5.4545451565222347
30
0
40
0.99999999999999645
210
0
220
0
230
1
0
CIRCLE
5
123
100
AcDbEntity
8
0
100
AcDbCircle
10
75.00000111758709
20
7.9999997019767788
30
0
40
0.99999999999999645
210
0
220
0
230
1
0
LWPOLYLINE
5
124
100
AcDbEntity
8
0
100
AcDbPolyline
90
4
70
1
43
0.0
10
52.000001087784767
20
-8.0000001192092896
10
74.500001110136509
20
-8.0000001192092896
10
74.500001110136509
20
-7.0000001043081284
10
52.000001087784767
20
-7.0000001043081284
0
LWPOLYLINE
5
125
100
AcDbEntity
8
0
100
AcDbPolyline
90
4
70
1
43
0.0
10
63.000001087784767
20
-19.500000290572643
10
74.500001110136509
20
-19.500000290572643
10
74.500001110136509
20
-20.500000305473804
10
63.000001087784767
20
-20.500000305473804
0
LWPOLYLINE
5
126
100
AcDbEntity
8
0
100
AcDbPolyline
90
4
70
1
43
0.0
10
-7.9999989122152382
20
-17.00000025331974
10
74.500001110136509
20
-17.00000025331974
10
74.500001110136509
20
-18.000000268220901
10
-7.9999989122152382
20
-18.000000268220901
0
LWPOLYLINE
5
127
100
AcDbEntity
8
0
100
AcDbPolyline
90
4
70
1
43
0.0
10
63.000001087784767
20
-14.500000216066837
10
74.500001110136509
20
-14.500000216066837
10
74.500001110136509
20
-15.500000230967999
10
63.000001087784767
20
-15.500000230967999
0
LWPOLYLINE
5
128
100
AcDbEntity
8
0
100
AcDbPolyline
90
4
70
1
43
0.0
10
63.000001087784767
20
-12.000000178813934
10
74.500001110136509
20
-12.000000178813934
10
74.500001110136509
20
-13.000000193715096
10
63.000001087784767
20
-13.000000193715096
0
LWPOLYLINE
5
129
100
AcDbEntity
8
0
100
AcDbPolyline
90
4
70
1
43
0.0
10
55.000001087784767
20
-9.5000001415610313
10
74.500001110136509
20
-9.5000001415610313
10
74.500001110136509
20
-10.500000156462193
10
55.000001087784767
20
-10.500000156462193
0
LWPOLYLINE
5
130
100
AcDbEntity
8
0
100
AcDbPolyline
90
4
70
1
43
0.0
10
14.000001087784764
20
1.0000000149011612
10
74.500001110136509
20
1.0000000149011612
10
74.500001110136509
20
0
10
14.000001087784764
20
0
0
LWPOLYLINE
5
131
100
AcDbEntity
8
0
100
AcDbPolyline
90
4
70
1
43
0.0
10
16.000001087784767
20
3.5000000521540642
10
74.500001110136509
20
3.5000000521540642
10
74.500001110136509
20
2.500000037252903
10
16.000001087784767
20
2.500000037252903
0
LWPOLYLINE
5
132
100
AcDbEntity
8
0
100
AcDbPolyline
90
4
70
1
43
0.0
10
30.000001087784764
20
6.0000000894069672
10
74.500001110136509
20
6.0000000894069672
10
74.500001110136509
20
5.000000074505806
10
30.000001087784764
20
5.000000074505806
0
LWPOLYLINE
5
133
100
AcDbEntity
8
0
100
AcDbPolyline
90
4
70
1
43
0.0
10
32.500001087784767
20
8.5000001266598701
10
74.500001110136509
20
8.5000001266598701
10
74.500001110136509
20
7.500000111758709
10
32.500001087784767
20
7.500000111758709
0
LWPOLYLINE
5
134
100
AcDbEntity
8
0
100
AcDbPolyline
90
4
70
1
43
0.0
10
74.500001110136509
20
-2.500000037252903
10
11.000001087784765
20
-2.500000037252903
10
11.000001087784765
20
-1.5000000223517418
10
74.500001110136509
20
-1.5000000223517418
0
LWPOLYLINE
5
135
100
AcDbEntity
8
0
100
AcDbPolyline
90
4
70
1
43
0.0
10
63.000001087784767
20
-4.0000000596046448
10
74.500001110136509
20
-4.0000000596046448
10
74.500001110136509
20
-5.000000074505806
10
63.000001087784767
20
-5.000000074505806
0
LWPOLYLINE
5
136
100
AcDbEntity
8
0
100
AcDbPolyline
90
4
70
1
43
0.0
10
5.0000000745058069
20
22.000000521540642
10
8.3266726846886741e-16
20
22.000000521540642
10
8.3266726846886741e-16
20
17.000000447034836
10
5.0000000745058069
20
17.000000447034836
0
LWPOLYLINE
5
137
100
AcDbEntity
8
0
100
AcDbPolyline
90
4
70
1
43
0.0
10
-5.0000000745058051
20
32.000000670552254
10
-10.000000149011612
20
32.000000670552254
10
-10.000000149011612
20
27.000000596046448
10
-5.0000000745058051
20
27.000000596046448
0
LWPOLYLINE
5
138
100
AcDbEntity
8
0
100
AcDbPolyline
90
4
70
1
43
0.0
10
-5.0000000745058051
20
7.0000002980232257
10
-10.000000149011612
20
7.0000002980232257
10
-10.000000149011612
20
12.000000372529032
10
-5.0000000745058051
20
12.000000372529032
0
LWPOLYLINE
5
139
100
AcDbEntity
8
0
100
AcDbPolyline
90
4
70
1
43
0.0
10
-15.000000223517418
20
17.000000447034836
10
-20.000000298023224
20
17.000000447034836
10
-20.000000298023224
20
22.000000521540642
10
-15.000000223517418
20
22.000000521540642
0
LWPOLYLINE
5
140
100
AcDbEntity
8
0
100
AcDbPolyline
90
4
70
1
43
0.0
10
7.4505805969238281e-08
20
37.000000670552254
10
-33.000000417232513
20
37.000000670552254
10
-33.000000417232513
20
62.000001043081284
10
7.4505805969238281e-08
20
62.000001043081284
0
LINE
5
141
100
AcDbEntity
8
0
100
AcDbLine
10
-5.000000074505806
20
37.000000551342964
30
0
11
-5.000000074505806
21
62.000001043081284
31
0
0
LINE
5
142
100
AcDbEntity
8
0
100
AcDbLine
10
-33.000000491738319
20
57.000000849366188
30
0
11
-26.000000387430191
21
57.000000849366188
31
0
0
LINE
5
143
100
AcDbEntity
8
0
100
AcDbLine
10
-26.000000387430191
20
57.000000849366188
30
0
11
-26.000000387430191
21
62.000001043081284
31
0
0
LINE
5
144
100
AcDbEntity
8
0
100
AcDbLine
10
-33.000000491738319
20
42.00000062584877
30
0
11
-26.000000387430191
21
42.00000062584877
31
0
0
LINE
5
145
100
AcDbEntity
8
0
100
AcDbLine
10
-26.000000387430191
20
42.00000062584877
30
0
11
-26.000000387430191
21
37.000000551342964
31
0
0
CIRCLE
5
146
100
AcDbEntity
8
0
100
AcDbCircle
10
-29.000000417232513
20
59.00000087916851
30
0
40
0.999999999999998
210
0
220
0
230
1
0
CIRCLE
5
147
100
AcDbEntity
8
0
100
AcDbCircle
10
-29.000000417232513
20
40.000000581145287
30
0
40
0.999999999999998
210
0
220
0
230
1
0
CIRCLE
5
148
100
AcDbEntity
8
0
100
AcDbCircle
10
-3.0000000447034836
20
59.00000087916851
30
0
40
0.99999999999999911
210
0
220
0
230
1
0
CIRCLE
5
149
100
AcDbEntity
8
0
100
AcDbCircle
10
-3.0000000447034836
20
40.000000596046448
30
0
40
0.99999999999999911
210
0
220
0
230
1
0
CIRCLE
5
150
100
AcDbEntity
8
0
100
AcDbCircle
10
-33.000000491738319
20
44.500000670552254
30
0
40
1.0000000149011612
210
0
220
0
230
1
0
CIRCLE
5
151
100
AcDbEntity
8
0
100
AcDbCircle
10
-33.000000491738319
20
47.000000670552254
30
0
40
1.0000000149011612
210
0
220
0
230
1
0
CIRCLE
5
152
100
AcDbEntity
8
0
100
AcDbCircle
10
-33.000000491738319
20
49.500000670552254
30
0
40
1.0000000149011612
210
0
220
0
230
1
0
CIRCLE
5
153
100
AcDbEntity
8
0
100
AcDbCircle
10
-33.000000491738319
20
52.000000670552254
30
0
40
1.0000000149011612
210
0
220
0
230
1
0
CIRCLE
5
154
100
AcDbEntity
8
0
100
AcDbCircle
10
-33.000000491738319
20
54.500000670552254
30
0
40
1.0000000149011612
210
0
220
0
230
1
0
CIRCLE
5
155
100
AcDbEntity
8
0
100
AcDbCircle
10
-10.000000149011612
20
33.000000491738319
30
0
40
1.0000000149011612
210
0
220
0
230
1
0
CIRCLE
5
156
100
AcDbEntity
8
0
100
AcDbCircle
10
-5.000000074505806
20
26.000000387430191
30
0
40
1.0000000149011612
210
0
220
0
230
1
0
CIRCLE
5
157
100
AcDbEntity
8
0
100
AcDbCircle
10
-20.000000298023224
20
23.000000342726707
30
0
40
0.9999998211860639
210
0
220
0
230
1
0
CIRCLE
5
158
100
AcDbEntity
8
0
100
AcDbCircle
10
-15.000000223517418
20
16.000000238418579
30
0
40
1.0000002086162585
210
0
220
0
230
1
0
CIRCLE
5
159
100
AcDbEntity
8
0
100
AcDbCircle
10
0
20
23.000000342726707
30
0
40
1.0000000149011612
210
0
220
0
230
1
0
CIRCLE
5
160
100
AcDbEntity
8
0
100
AcDbCircle
10
5.000000074505806
20
16.000000238418579
30
0
40
1.0000000149011612
210
0
220
0
230
1
0
LWPOLYLINE
5
161
100
AcDbEntity
8
0
100
AcDbPolyline
90
8
70
1
43
0.0
10
-33.5000004991889
20
54.000000804662704
10
-45.000000670552254
20
54.000000804662704
10
-43.920987812121169
20
54.000000804662704
10
-43.920987812121169
20
25.804799573978173
10
-45.000000670552254
20
25.804799573978276
10
-45.000000670552254
20
54.000000804662704
10
-45.000000670552254
20
55.000000819563866
10
-33.5000004991889
20
55.000000819563866
0
LWPOLYLINE
5
162
100
AcDbEntity
8
0
100
AcDbPolyline
90
4
70
1
43
0.0
10
-36.000000536441803
20
75.00000111758709
10
-37.000000551342964
20
75.00000111758709
10
-37.000000551342964
20
55.000000819563866
10
-36.000000536441803
20
55.000000819563866
0
LWPOLYLINE
5
163
100
AcDbEntity
8
0
100
AcDbPolyline
90
8
70
1
43
0.0
10
-36.000000536441803
20
68.000001013278961
10
5.000000074505806
20
68.000001013278961
10
6.0000000894069672
20
68.000001013278961
10
6.0000000894069672
20
33.000000491738319
10
5.000000074505806
20
33.000000491738319
10
5.000000074505806
20
68.000001013278961
10
5.000000074505806
20
67.0000009983778
10
-36.000000536441803
20
67.0000009983778
0
LINE
5
164
100
AcDbEntity
8
0
100
AcDbLine
10
-45.000000670552254
20
25.804799573978276
30
0
11
-36.948369969704736
21
0.75528183800801518
31
0
0
LINE
5
165
100
AcDbEntity
8
0
100
AcDbLine
10
-36.948369969704736
20
0.75528183800801518
30
0
11
-7.9999989122152382
21
-18.000000268220901
31
0
0
LINE
5
166
100
AcDbEntity
8
0
100
AcDbLine
10
-43.920987812121169
20
25.804799573978173
30
0
11
-35.991522738823541
21
1.1353526792744448
31
0
0
LINE
5
167
100
AcDbEntity
8
0
100
AcDbLine
10
-35.991522738823541
20
1.1353526792744448
30
0
11
-7.9999989122152382
21
-17.00000025331974
31
0
0
LWPOLYLINE
5
168
100
AcDbEntity
8
0
100
AcDbPolyline
90
12
70
1
43
0.0
10
-33.5000004991889
20
51.500000767409801
10
-43.000000640749931
20
51.500000767409801
10
-42.00000062584877
20
51.500000767409801
10
-42.00000062584877
20
27.000000476837158
10
-34.29377372384846
20
3.0250723372805948
10
-8.0159435878988496
20
-14.000000208616273
10
-8
20
-15.000000223517445
10
-35.155019374946249
20
2.593392094336755
10
-43.000000640749931
20
27.000000476837158
10
-43.000000640749931
20
51.500000767409801
10
-43.000000640749931
20
52.500000782310963
10
-33.5000004991889
20
52.500000782310963
0
LINE
5
169
100
AcDbEntity
8
0
100
AcDbLine
10
-42.00000062584877
20
27.000000476837158
30
0
11
-43.000000640749931
21
27.000000476837158
31
0
0
LWPOLYLINE
5
170
100
AcDbEntity
8
0
100
AcDbPolyline
90
18
70
1
43
0.0
10
-33.5000004991889
20
49.000000730156898
10
-41.000000610947609
20
49.000000730156898
10
-40.000000596046448
20
49.000000730156898
10
-40.000000596046448
20
28.000000476837158
10
-32.583863037558856
20
4.9275725170979445
10
-8.0000001341104507
20
-11.000000163912773
10
54.000000804662704
20
-11.000000163912773
10
54.000000804662704
20
-12.000000178813934
10
54.000000804662704
20
-9.5000001415610313
10
55.000000819563866
20
-9.5000001415610313
10
55.000000819563866
20
-12.000000178813934
10
54.000000804662704
20
-12.000000178813934
10
-8.0000001341104507
20
-12.000000178813934
10
-33.440915140279699
20
4.482845679203642
10
-41.000000610947609
20
28.000000476837158
10
-41.000000610947609
20
49.000000730156898
10
-41.000000610947609
20
50.00000074505806
10
-33.5000004991889
20
50.00000074505806
0
LINE
5
171
100
AcDbEntity
8
0
100
AcDbLine
10
-40.000000596046448
20
28.000000476837158
30
0
11
-41.000000610947609
21
28.000000476837158
31
0
0
LWPOLYLINE
5
172
100
AcDbEntity
8
0
100
AcDbPolyline
90
18
70
1
43
0.0
10
-33.5000004991889
20
46.500000692903996
10
-39.000000581145287
20
46.500000692903996
10
-38.000000566244125
20
46.500000692903996
10
-38.000000566244125
20
29.000000476837158
10
-30.8697588381666
20
6.817026211707029
10
-8.0000001341104507
20
-8.0000001192092896
10
51.000000759959221
20
-8.0000001192092896
10
51.000000759959221
20
-9.0000001341104507
10
52.000000774860382
20
-9.0000001341104507
10
52.000000774860382
20
-7.0000001043081284
10
51.000000759959221
20
-7.0000001043081284
10
51.000000759959221
20
-9.0000001341104507
10
-8.0000001341104507
20
-9.0000001341104507
10
-31.72681094088745
20
6.3722993738127442
10
-39.000000581145287
20
29.000000476837158
10
-39.000000581145287
20
46.500000692903996
10
-39.000000581145287
20
47.500000707805157
10
-33.5000004991889
20
47.500000707805157
0
LINE
5
173
100
AcDbEntity
8
0
100
AcDbLine
10
-38.000000566244125
20
29.000000476837158
30
0
11
-39.000000581145287
21
29.000000476837158
31
0
0
LWPOLYLINE
5
174
100
AcDbEntity
8
0
100
AcDbPolyline
90
16
70
1
43
0.0
10
-33.5000004991889
20
45.000000670552254
10
-37.000000551342964
20
45.000000670552254
10
-37.000000551342964
20
44.000000655651093
10
-36.000000536441803
20
44.000000655651093
10
-36.000000536441803
20
30.000000476837158
10
-29.119227559158936
20
8.5931512141792972
10
-9.6666486633702764
20
-4.0099277003353508
10
-9.0000001341104507
20
-4.0000000596046448
10
63.000001087784767
20
-4.0000000596046448
10
63.000001087784767
20
-5.000000074505806
10
-8.9961905635132169
20
-5.000000074505806
10
-9.6666486633702764
20
-5.0104985536968556
10
-29.976047917424058
20
8.147703393533817
10
-37.000000551342964
20
30.000000476837158
10
-37.000000551342964
20
44.000000655651093
10
-33.5000004991889
20
44.000000655651093
0
LINE
5
175
100
AcDbEntity
8
0
100
AcDbLine
10
-36.000000536441803
20
30.000000476837158
30
0
11
-37.000000551342964
21
30.000000476837158
31
0
0
LWPOLYLINE
5
176
100
AcDbEntity
8
0
100
AcDbPolyline
90
8
70
1
43
0.0
10
5.000000074505806
20
34.000000506639481
10
-21.000000312924385
20
34.000000506639481
10
-21.000000312924385
20
33.000000491738319
10
-20.000000298023224
20
33.000000491738319
10
-20.000000298023224
20
23.000000342726707
10
-21.000000312924385
20
23.000000342726707
10
-21.000000312924385
20
33.000000491738319
10
5.000000074505806
20
33.000000491738319
0
LWPOLYLINE
5
177
100
AcDbEntity
8
0
100
AcDbPolyline
90
4
70
1
43
0.0
10
-20.000000298023224
20
24.000000357627869
10
0
20
24.000000357627869
10
0
20
23.000000342726707
10
-20.000000298023224
20
23.000000342726707
0
CIRCLE
5
178
100
AcDbEntity
8
0
100
AcDbCircle
10
-10.000000149011612
20
13.000000193715096
30
0
40
1.0000000149011612
210
0
220
0
230
1
0
CIRCLE
5
179
100
AcDbEntity
8
0
100
AcDbCircle
10
-5.000000074505806
20
6.0000000894069672
30
0
40
1.0000000149011612
210
0
220
0
230
1
0
LWPOLYLINE
5
180
100
AcDbEntity
8
0
100
AcDbPolyline
90
4
70
1
43
0.0
10
-10.000000149011612
20
23.000000342726707
10
-9.0000001341104507
20
23.000000342726707
10
-9.0000001341104507
20
13.000000193715096
10
-10.000000149011612
20
13.000000193715096
0
LWPOLYLINE
5
181
100
AcDbEntity
8
0
100
AcDbPolyline
90
4
70
1
43
0.0
10
-30.000000447034836
20
82.000001221895218
10
9.0000001341104507
20
82.000001221895218
10
9.0000001341104507
20
81.000001206994057
10
-30.000000447034836
20
81.000001206994057
0
LWPOLYLINE
5
182
100
AcDbEntity
8
0
100
AcDbPolyline
90
4
70
1
43
0.0
10
8.0000001192092896
20
81.000001206994057
10
9.0000001341104507
20
81.000001206994057
10
9.0000001341104507
20
32.000000476837158
10
8.0000001192092896
20
32.000000476837158
0
LWPOLYLINE
5
183
100
AcDbEntity
8
0
100
AcDbPolyline
90
6
70
1
43
0.0
10
-5.000000074505806
20
25.00000037252903
10
10.000000134110451
20
25.00000037252903
10
30.000000447034836
20
5.000000074505806
10
30.000000447034836
20
6.0000000894069672
10
10.000000134110451
20
26.000000387430191
10
-5.000000074505806
20
26.000000387430191
0
LINE
5
184
100
AcDbEntity
8
0
100
AcDbLine
10
10.000000134110451
20
25.00000037252903
30
0
11
10.000000134110451
21
26.000000387430191
31
0
0
LWPOLYLINE
5
185
100
AcDbEntity
8
0
100
AcDbPolyline
90
4
70
1
43
0.0
10
5.000000074505806
20
15.000000223517418
10
16.000000149011612
20
15.000000223517418
10
16.000000149011612
20
16.000000238418579
10
5.000000074505806
20
16.000000238418579
0
LWPOLYLINE
5
186
100
AcDbEntity
8
0
100
AcDbPolyline
90
4
70
1
43
0.0
10
-5.000000074505806
20
5.000000074505806
10
13.000000149011612
20
5.000000074505806
10
13.000000149011612
20
6.0000000894069672
10
-5.000000074505806
20
6.0000000894069672
0
LWPOLYLINE
5
187
100
AcDbEntity
8
0
100
AcDbPolyline
90
4
70
1
43
0.0
10
-15.000000223517418
20
16.000000238418579
10
-14.000000208616257
20
16.000000238418579
10
-14.000000208616257
20
2.0000000298023224
10
-15.000000223517418
20
2.0000000298023224
0
LWPOLYLINE
5
188
100
AcDbEntity
8
0
100
AcDbPolyline
90
8
70
1
43
0.0
10
-14.000000208616257
20
3.0000000447034836
10
10.000000149011612
20
3.0000000447034836
10
11.004504780524247
20
3.0000000447034836
10
11.004504780524247
20
-2.500000037252903
10
10.000000149011612
20
-2.500000037252903
10
10.000000149011612
20
3.0000000447034836
10
10.000000149011612
20
2.0000000298023224
10
-14.000000208616257
20
2.0000000298023224
0
LINE
5
189
100
AcDbEntity
8
0
100
AcDbLine
10
-8
20
-15.000000223517445
30
0
11
58.000000864267349
21
-15.000000223517418
31
0
0
LINE
5
190
100
AcDbEntity
8
0
100
AcDbLine
10
58.000000864267349
20
-15.000000223517418
30
0
11
58.000000864267349
21
-13.000000193715096
31
0
0
LINE
5
191
100
AcDbEntity
8
0
100
AcDbLine
10
58.000000864267349
20
-13.000000193715096
30
0
11
63.000001087784767
21
-13.000000193715096
31
0
0
LINE
5
192
100
AcDbEntity
8
0
100
AcDbLine
10
63.000001087784767
20
-12.000000178813934
30
0
11
57.000000849366188
21
-12.000000178813934
31
0
0
LINE
5
193
100
AcDbEntity
8
0
100
AcDbLine
10
57.000000849366188
20
-12.000000178813934
30
0
11
57.000000849366188
21
-12.500000186264515
31
0
0
LINE
5
194
100
AcDbEntity
8
0
100
AcDbLine
10
57.000000849366188
20
-12.500000186264515
30
0
11
57.000000849366188
21
-13.000000193715096
31
0
0
LINE
5
195
100
AcDbEntity
8
0
100
AcDbLine
10
57.000000849366188
20
-13.000000193715096
30
0
11
58.000000864267349
21
-13.000000193715096
31
0
0
LINE
5
196
100
AcDbEntity
8
0
100
AcDbLine
10
57.000000849366188
20
-13.000000193715096
30
0
11
57.000000849366188
21
-14.000000208616257
31
0
0
LINE
5
197
100
AcDbEntity
8
0
100
AcDbLine
10
57.000000849366188
20
-14.000000208616257
30
0
11
58.000000864267349
21
-14.000000208616257
31
0
0
LINE
5
198
100
AcDbEntity
8
0
100
AcDbLine
10
57.000000849366188
20
-14.000000208616257
30
0
11
-8.0159435878988496
21
-14.000000208616273
31
0
0
LINE
5
199
100
AcDbEntity
8
0
100
AcDbLine
10
-8.0000001341104507
20
-12.000000178813934
30
0
11
-8.0000001341104507
21
-11.000000163912773
31
0
0
LINE
5
200
100
AcDbEntity
8
0
100
AcDbLine
10
-8.0000001341104507
20
-9.0000001341104507
30
0
11
-8.0000001341104507
21
-8.0000001192092896
31
0
0
LINE
5
201
100
AcDbEntity
8
0
100
AcDbLine
10
-9.6666486633702764
20
-5.0104985536968556
30
0
11
-9.6666486633702764
21
-4.0099277003353508
31
0
0
LWPOLYLINE
5
202
100
AcDbEntity
8
0
100
AcDbPolyline
90
4
70
1
43
0.0
10
13.000000193715096
20
6.0000000894069672
10
14.000000208616257
20
6.0000000894069672
10
14.000000208616257
20
0
10
13.000000193715096
20
0
0
ARC
5
203
100
AcDbEntity
8
0
100
AcDbCircle
10
-20.000000298023224
20
23.000000342726707
30
0
40
2.0000000298023215
210
0
220
-0
230
1
100
AcDbArc
50
30.000000000000004
51
90
0
ARC
5
204
100
AcDbEntity
8
0
100
AcDbCircle
10
-10.000000149011612
20
33.000000491738319
30
0
40
2.0000000298023215
210
0
220
-0
230
1
100
AcDbArc
50
30.000000000000004
51
150.00000000000003
0
LWPOLYLINE
5
205
100
AcDbEntity
8
0
100
AcDbPolyline
90
4
70
1
43
0.0
10
16.000000238418579
20
3.5000000447034836
10
17.00000025331974
20
3.5000000447034836
10
17.00000025331974
20
16.000000238418579
10
16.000000238418579
20
16.000000238418579
0
LINE
5
206
100
AcDbEntity
8
0
100
AcDbLine
10
9.0000001341104507
20
32.000000476837158
30
0
11
32.500000484287739
21
8.5000001266598701
31
0
0
LINE
5
207
100
AcDbEntity
8
0
100
AcDbLine
10
32.500000484287739
20
8.5000001266598701
30
0
11
32.500000484287739
21
7.500000111758709
31
0
0
LINE
5
208
100
AcDbEntity
8
0
100
AcDbLine
10
32.500000484287739
20
7.500000111758709
30
0
11
9.0000001341104507
21
31.000000444427137
31
0
0
LINE
5
209
100
AcDbEntity
8
0
100
AcDbLine
10
9.0000001341104507
20
31.000000444427137
30
0
11
8.0000001192092896
21
32.000000476837158
31
0
0
LINE
5
210
100
AcDbEntity
8
0
100
AcDbLine
10
-36.000000536441803
20
75.00000111758709
30
0
11
-30.000000447034836
21
81.000001206994057
31
0
0
ENDSEC
0
SECTION
2
OBJECTS
0
DICTIONARY
5
C
100
AcDbDictionary
3
ACAD_GROUP
350
D
3
ACAD_MLINESTYLE
350
17
0
DICTIONARY
5
D
100
AcDbDictionary
0
DICTIONARY
5
1A
330
C
100
AcDbDictionary
0
DICTIONARY
5
17
100
AcDbDictionary
0
ENDSEC
0
EOF
